<svg fill="#ffffff" height="30" width="30" version="1.1" id="Layer_1" xmlns="http://www.w3.org/2000/svg" xmlns:xlink="http://www.w3.org/1999/xlink" viewBox="0 0 496 496" xml:space="preserve" stroke="#ffffff"><g id="SVGRepo_bgCarrier" stroke-width="0"></g><g id="SVGRepo_tracerCarrier" stroke-linecap="round" stroke-linejoin="round"></g><g id="SVGRepo_iconCarrier"> <g> <g> <g> <path d="M176,216c-57.344,0-104,46.656-104,104s46.656,104,104,104s104-46.656,104-104S233.344,216,176,216z M176,408 c-48.52,0-88-39.48-88-88c0-48.52,39.48-88,88-88s88,39.48,88,88C264,368.52,224.52,408,176,408z"></path> <path d="M184,264v-16h-16v16c-17.648,0-32,14.352-32,32s14.352,32,32,32h16c8.816,0,16,7.176,16,16c0,8.824-7.184,16-16,16h-16 c-8.824,0-16-7.176-16-16v-8h-16v8c0,17.648,14.352,32,32,32v16h16v-16c17.648,0,32-14.352,32-32s-14.352-32-32-32h-16 c-8.824,0-16-7.176-16-16c0-8.824,7.176-16,16-16h16c8.816,0,16,7.176,16,16v8h16v-8C216,278.352,201.648,264,184,264z"></path> <path d="M312,376v-56h16V184h-48v136h16v56H312z M296,200h16v104h-16V200z"></path> <path d="M368,144h-16v24h-16v64h16v24h16v-24h16v-64h-16V144z M368,216h-16v-32h16V216z"></path> <path d="M424,160h-16v56h-16v48h16v16h16v-16h16v-48h-16V160z M424,248h-16v-16h16V248z"></path> <path d="M480,104V88h-16v16h-16v48h16v48h16v-48h16v-48H480z M480,136h-16v-16h16V136z"></path> <path d="M176,480c-88.224,0-160-71.776-160-160c0-55.928,28.44-106.552,76.152-136H260c15.44,0,28-12.56,28-28 c0-12.312-8.048-22.68-19.12-26.416l11.304-19.784C290.528,91.688,296,71.104,296,50.256V32c0-17.648-14.352-32-32-32 s-32,14.352-32,32v4c0,6.616-5.384,12-12,12c-6.616,0-12-5.384-12-12v-4c0-17.648-14.352-32-32-32s-32,14.352-32,32v4 c0,6.616-5.384,12-12,12c-6.616,0-12-5.384-12-12v-4c0-17.648-14.352-32-32-32S56,14.352,56,32v18.256 c0,20.848,5.472,41.432,15.816,59.536l11.304,19.784C72.048,133.32,64,143.688,64,156c0,8.424,3.824,15.912,9.736,21.048 C27.336,210.096,0,262.496,0,320c0,97.048,78.952,176,176,176c94.024,0,171.152-73.624,175.584-167.624l-15.984-0.752 C331.568,413.072,261.464,480,176,480z M72,50.256V32c0-8.816,7.176-16,16-16c8.816,0,16,7.184,16,16v4c0,15.44,12.56,28,28,28 s28-12.56,28-28v-4c0-8.816,7.176-16,16-16c8.816,0,16,7.184,16,16v4c0,15.44,12.56,28,28,28s28-12.56,28-28v-4 c0-8.816,7.176-16,16-16c8.816,0,16,7.184,16,16v18.256c0,18.064-4.744,35.904-13.704,51.6L251.36,128H100.64l-14.936-26.144 C76.744,86.168,72,68.32,72,50.256z M92,144h168c6.616,0,12,5.384,12,12c0,6.616-5.384,12-12,12H92c-6.616,0-12-5.384-12-12 C80,149.384,85.384,144,92,144z"></path> </g> </g> </g> </g></svg>